<svg width="104" height="114" viewBox="0 0 104 114" fill="none" xmlns="http://www.w3.org/2000/svg">
<circle opacity="0.21" cx="52" cy="52" r="52" fill="#2970FF"/>
<g filter="url(#filter0_f_403_24356)">
<rect width="51.2" height="51.2" rx="12.8" transform="matrix(-1 0 0 1 77.8 46.2)" fill="url(#paint0_linear_403_24356)"/>
<line opacity="0.5" y1="-0.128" x2="40.96" y2="-0.128" transform="matrix(-1 0 0 1 72.68 51.96)" stroke="#597595" stroke-width="0.256" stroke-dasharray="0.64 0.64"/>
<line opacity="0.5" y1="-0.128" x2="40.96" y2="-0.128" transform="matrix(-1 0 0 1 72.68 58.36)" stroke="#597595" stroke-width="0.256" stroke-dasharray="0.64 0.64"/>
<line opacity="0.5" y1="-0.128" x2="40.96" y2="-0.128" transform="matrix(-1 0 0 1 72.68 64.76)" stroke="#597595" stroke-width="0.256" stroke-dasharray="0.64 0.64"/>
<line opacity="0.5" y1="-0.128" x2="40.96" y2="-0.128" transform="matrix(-1 0 0 1 72.68 71.16)" stroke="#597595" stroke-width="0.256" stroke-dasharray="0.64 0.64"/>
<line opacity="0.5" y1="-0.128" x2="40.96" y2="-0.128" transform="matrix(-1 0 0 1 72.68 77.56)" stroke="#597595" stroke-width="0.256" stroke-dasharray="0.64 0.64"/>
<line opacity="0.5" y1="-0.128" x2="40.96" y2="-0.128" transform="matrix(-1 0 0 1 72.68 83.96)" stroke="#597595" stroke-width="0.256" stroke-dasharray="0.64 0.64"/>
<line opacity="0.5" y1="-0.128" x2="40.96" y2="-0.128" transform="matrix(-1 0 0 1 72.68 90.36)" stroke="#597595" stroke-width="0.256" stroke-dasharray="0.64 0.64"/>
<path d="M63.464 72.5371C68.392 72.5371 70.856 76.9496 73.32 78.8075V91H31.08V63.48C34.3253 63.48 44.104 77.4141 51.144 77.4141C58.184 77.4141 58.536 72.5371 63.464 72.5371Z" fill="url(#paint1_linear_403_24356)" fill-opacity="0.1"/>
<path d="M73.32 78.84C70.856 76.9782 68.392 72.5563 63.464 72.5563C58.536 72.5563 58.184 77.4436 51.144 77.4436C44.104 77.4436 34.3253 63.48 31.08 63.48" stroke="url(#paint2_linear_403_24356)" stroke-width="0.692893" stroke-linecap="round" stroke-linejoin="round"/>
<path d="M42.8713 61.2941L45.3227 60.9878C45.4823 60.3925 45.7192 59.8206 46.0272 59.2868L44.5098 57.3358C44.4635 57.2762 44.4405 57.2017 44.4453 57.1264C44.45 57.0511 44.4821 56.98 44.5355 56.9267L46.2879 55.1761C46.3413 55.1227 46.4124 55.0907 46.4877 55.086C46.563 55.0814 46.6375 55.1044 46.697 55.1507L48.648 56.6681C49.1815 56.3608 49.7528 56.1245 50.3475 55.9652L50.6541 53.5122C50.6632 53.4372 50.6995 53.368 50.7561 53.3179C50.8127 53.2678 50.8857 53.24 50.9613 53.24H53.4387C53.5142 53.24 53.587 53.2676 53.6436 53.3175C53.7002 53.3675 53.7366 53.4364 53.7459 53.5113L54.0525 55.9652C54.6477 56.1245 55.2194 56.3614 55.7529 56.6697L57.7039 55.1523C57.7635 55.1059 57.8379 55.0829 57.9132 55.0876C57.9886 55.0923 58.0596 55.1243 58.113 55.1776L59.8639 56.9279C59.9173 56.9813 59.9494 57.0523 59.9541 57.1276C59.9588 57.203 59.9359 57.2774 59.8896 57.337L58.3722 59.288C58.6794 59.8216 58.9156 60.3931 59.0748 60.9878L61.5278 61.2941C61.6028 61.3032 61.672 61.3395 61.7221 61.3961C61.7722 61.4527 61.7999 61.5257 61.8 61.6013V64.0787C61.8 64.1542 61.7724 64.227 61.7224 64.2836C61.6725 64.3402 61.6036 64.3765 61.5287 64.3859L59.0758 64.6922C58.9162 65.2875 58.6795 65.8594 58.3716 66.3932L59.889 68.3442C59.9353 68.4038 59.9583 68.4782 59.9536 68.5535C59.949 68.6289 59.9169 68.6999 59.8636 68.7533L58.1117 70.5051C58.0584 70.5585 57.9873 70.5905 57.912 70.5952C57.8367 70.5999 57.7622 70.5769 57.7027 70.5305L55.7517 69.0131C55.218 69.3209 54.6463 69.5577 54.0513 69.7173L53.7447 72.169C53.7353 72.2436 53.699 72.3123 53.6427 72.3622C53.5864 72.412 53.5139 72.4397 53.4387 72.44H50.9613C50.8858 72.44 50.813 72.4124 50.7564 72.3624C50.6998 72.3125 50.6634 72.2436 50.6541 72.1687L50.3478 69.7173C49.7524 69.5579 49.1805 69.321 48.6468 69.0128L46.6958 70.5302C46.6362 70.5766 46.5618 70.5996 46.4864 70.5949C46.4111 70.5902 46.3401 70.5582 46.2867 70.5048L44.5349 68.753C44.4815 68.6996 44.4494 68.6286 44.4446 68.5533C44.4399 68.478 44.4629 68.4035 44.5092 68.3439L46.0266 66.3929C45.7187 65.859 45.482 65.2871 45.3224 64.6919L42.8707 64.3856C42.7959 64.3761 42.7272 64.3397 42.6774 64.2832C42.6276 64.2267 42.6001 64.154 42.6 64.0787V61.6013C42.6 61.5258 42.6276 61.453 42.6776 61.3964C42.7275 61.3398 42.7964 61.3034 42.8713 61.2941ZM52.2 66.2464C52.8737 66.2464 53.5323 66.0467 54.0925 65.6724C54.6527 65.2981 55.0893 64.766 55.3471 64.1436C55.605 63.5211 55.6724 62.8362 55.541 62.1754C55.4096 61.5146 55.0851 60.9077 54.6087 60.4313C54.1323 59.9549 53.5254 59.6304 52.8646 59.499C52.2038 59.3676 51.5189 59.435 50.8964 59.6928C50.274 59.9507 49.7419 60.3873 49.3676 60.9475C48.9933 61.5077 48.7935 62.1663 48.7935 62.84C48.7935 63.7434 49.1524 64.6099 49.7913 65.2487C50.4301 65.8876 51.2966 66.2464 52.2 66.2464Z" fill="url(#paint3_linear_403_24356)"/>
<path opacity="0.09" fill-rule="evenodd" clip-rule="evenodd" d="M32.4393 70.4089C33.0134 70.4089 33.4787 70.8742 33.4787 71.4482V90.1563C33.4787 90.7304 33.0134 91.1957 32.4393 91.1957C31.8653 91.1957 31.4 90.7304 31.4 90.1563V71.4482C31.4 70.8742 31.8653 70.4089 32.4393 70.4089ZM38.3289 76.2452C38.3289 75.6712 37.8636 75.2059 37.2896 75.2059C36.7156 75.2059 36.2502 75.6712 36.2502 76.2452V90.1564C36.2502 90.7304 36.7156 91.1957 37.2896 91.1957C37.8636 91.1957 38.3289 90.7304 38.3289 90.1564V76.2452ZM61.5408 78.4037C62.1148 78.4037 62.5802 78.8691 62.5802 79.4431V90.1563C62.5802 90.7303 62.1148 91.1956 61.5408 91.1956C60.9668 91.1956 60.5015 90.7303 60.5015 90.1563V79.4431C60.5015 78.8691 60.9668 78.4037 61.5408 78.4037ZM67.4304 82.1082C67.4304 81.5342 66.9651 81.0689 66.3911 81.0689C65.8171 81.0689 65.3517 81.5342 65.3517 82.1082V90.1564C65.3517 90.7305 65.8171 91.1958 66.3911 91.1958C66.9651 91.1958 67.4304 90.7305 67.4304 90.1564V82.1082ZM72.2807 84.7731C72.2807 84.1991 71.8153 83.7337 71.2413 83.7337C70.6673 83.7337 70.202 84.1991 70.202 84.7731V90.1563C70.202 90.7303 70.6673 91.1956 71.2413 91.1956C71.8153 91.1956 72.2807 90.7303 72.2807 90.1563V84.7731ZM57.7299 83.707C57.7299 83.133 57.2646 82.6677 56.6906 82.6677C56.1166 82.6677 55.6512 83.133 55.6512 83.707V90.1562C55.6512 90.7302 56.1166 91.1956 56.6906 91.1956C57.2646 91.1956 57.7299 90.7302 57.7299 90.1562V83.707ZM51.8403 80.0028C52.4143 80.0028 52.8797 80.4682 52.8797 81.0422V90.1564C52.8797 90.7304 52.4143 91.1957 51.8403 91.1957C51.2663 91.1957 50.801 90.7304 50.801 90.1564V81.0422C50.801 80.4682 51.2663 80.0028 51.8403 80.0028ZM48.0294 87.4381C48.0294 86.864 47.5641 86.3987 46.9901 86.3987C46.4161 86.3987 45.9507 86.864 45.9507 87.4381V90.1563C45.9507 90.7303 46.4161 91.1957 46.9901 91.1957C47.5641 91.1957 48.0294 90.7303 48.0294 90.1563V87.4381ZM42.1398 81.0689C42.7138 81.0689 43.1792 81.5342 43.1792 82.1082V90.1564C43.1792 90.7305 42.7138 91.1958 42.1398 91.1958C41.5658 91.1958 41.1005 90.7305 41.1005 90.1564V82.1082C41.1005 81.5342 41.5658 81.0689 42.1398 81.0689Z" fill="url(#paint4_linear_403_24356)"/>
<path d="M51.6906 63.9805C51.6163 63.9283 51.5178 63.8317 51.5178 63.592C51.5178 63.4217 51.6333 63.3197 51.88 63.2141V64.0649C51.808 64.0429 51.7418 64.0166 51.6906 63.9805Z" fill="#39B8F2"/>
<path d="M52.2 59C54.3174 59 56.04 60.7226 56.04 62.84C56.04 64.9574 54.3174 66.68 52.2 66.68C50.0826 66.68 48.36 64.9574 48.36 62.84C48.36 60.7226 50.0826 59 52.2 59ZM50.8778 63.5923C50.8778 64.088 51.1197 64.3619 51.3229 64.5046C51.4819 64.6163 51.6736 64.6829 51.88 64.7213V65.4H52.52V64.7482C52.8883 64.7203 53.264 64.6326 53.5888 64.5155L53.8896 64.407L53.6723 63.8051L53.3712 63.9139C53.0768 64.0202 52.7843 64.0835 52.52 64.1078V62.985C53.0285 62.8026 53.5926 62.5178 53.5926 61.7939C53.5926 61.433 53.4253 61.135 53.121 60.9552C52.9475 60.8528 52.7389 60.7974 52.52 60.7715V60.28H51.88V60.7763C51.5034 60.8202 51.1584 60.9235 50.9661 61.0298L50.6854 61.1837L50.9936 61.7446L51.2739 61.5904C51.4125 61.5142 51.6387 61.4522 51.88 61.4186V62.527C51.391 62.6998 50.8778 62.9501 50.8778 63.5923Z" fill="url(#paint5_linear_403_24356)"/>
<path d="M52.7949 61.5065C52.9053 61.5718 52.9526 61.6576 52.9526 61.7939C52.9526 62.0361 52.8154 62.1683 52.52 62.2966V61.4179C52.625 61.4361 52.7216 61.463 52.7949 61.5065Z" fill="#39B8F2"/>
</g>
<rect x="20" y="20.6001" width="64" height="64" rx="16" fill="url(#paint6_linear_403_24356)"/>
<line opacity="0.5" x1="26.4" y1="27.64" x2="77.6" y2="27.64" stroke="#C7D6E7" stroke-width="0.32" stroke-dasharray="0.8 0.8"/>
<line opacity="0.5" x1="26.4" y1="35.64" x2="77.6" y2="35.64" stroke="#C7D6E7" stroke-width="0.32" stroke-dasharray="0.8 0.8"/>
<line opacity="0.5" x1="26.4" y1="43.64" x2="77.6" y2="43.64" stroke="#C7D6E7" stroke-width="0.32" stroke-dasharray="0.8 0.8"/>
<line opacity="0.5" x1="26.4" y1="51.64" x2="77.6" y2="51.64" stroke="#C7D6E7" stroke-width="0.32" stroke-dasharray="0.8 0.8"/>
<line opacity="0.5" x1="26.4" y1="59.64" x2="77.6" y2="59.64" stroke="#C7D6E7" stroke-width="0.32" stroke-dasharray="0.8 0.8"/>
<line opacity="0.5" x1="26.4" y1="67.64" x2="77.6" y2="67.64" stroke="#C7D6E7" stroke-width="0.32" stroke-dasharray="0.8 0.8"/>
<line opacity="0.5" x1="26.4" y1="75.64" x2="77.6" y2="75.64" stroke="#C7D6E7" stroke-width="0.32" stroke-dasharray="0.8 0.8"/>
<path d="M37.92 53.5214C31.76 53.5214 28.68 59.037 25.6 61.3594V76.6H78.4V42.2C74.3434 42.2 62.12 59.6176 53.32 59.6176C44.52 59.6176 44.08 53.5214 37.92 53.5214Z" fill="url(#paint7_linear_403_24356)" fill-opacity="0.1"/>
<path d="M25.6 61.4C28.68 59.0727 31.76 53.5454 37.92 53.5454C44.08 53.5454 44.52 59.6545 53.32 59.6545C62.12 59.6545 74.3434 42.2 78.4 42.2" stroke="url(#paint8_linear_403_24356)" stroke-width="0.866116" stroke-linecap="round" stroke-linejoin="round"/>
<path d="M66.5761 35.9844L62.7458 35.5059C62.4964 34.5757 62.1263 33.6821 61.645 32.848L64.016 29.7996C64.0883 29.7064 64.1242 29.5901 64.1168 29.4724C64.1094 29.3547 64.0592 29.2437 63.9758 29.1604L61.2376 26.4251C61.1542 26.3417 61.0432 26.2917 60.9255 26.2843C60.8078 26.277 60.6915 26.313 60.5984 26.3854L57.55 28.7564C56.7165 28.2761 55.8237 27.9069 54.8945 27.658L54.4155 23.8252C54.4012 23.708 54.3445 23.6 54.2561 23.5216C54.1676 23.4433 54.0536 23.4 53.9355 23.3999H50.0645C49.9466 23.3999 49.8328 23.443 49.7444 23.5211C49.656 23.5991 49.5991 23.7068 49.5845 23.8238L49.1055 27.658C48.1754 27.9069 47.2822 28.277 46.4485 28.7588L43.4002 26.3878C43.3071 26.3154 43.1908 26.2795 43.0731 26.2868C42.9554 26.2941 42.8444 26.3441 42.761 26.4275L40.0252 29.1623C39.9417 29.2457 39.8916 29.3566 39.8842 29.4743C39.8768 29.592 39.9126 29.7084 39.985 29.8015L42.356 32.8499C41.876 33.6837 41.5069 34.5765 41.2581 35.5059L37.4253 35.9844C37.3081 35.9987 37.2001 36.0554 37.1217 36.1438C37.0434 36.2323 37.0001 36.3463 37 36.4644V40.3354C37 40.4533 37.0431 40.5671 37.1212 40.6555C37.1992 40.7439 37.3069 40.8008 37.4239 40.8154L41.2566 41.2939C41.5059 42.2241 41.8758 43.1177 42.3569 43.9518L39.986 47.0002C39.9136 47.0933 39.8776 47.2096 39.8849 47.3273C39.8922 47.445 39.9423 47.556 40.0256 47.6394L42.7629 50.3767C42.8463 50.46 42.9573 50.5101 43.075 50.5174C43.1927 50.5247 43.309 50.4888 43.4021 50.4164L46.4505 48.0454C47.2844 48.5263 48.1776 48.8962 49.1074 49.1457L49.5865 52.9765C49.6011 53.0931 49.6578 53.2004 49.7457 53.2783C49.8337 53.3562 49.947 53.3994 50.0645 53.3999H53.9355C54.0534 53.3999 54.1672 53.3568 54.2556 53.2787C54.344 53.2007 54.4009 53.093 54.4155 52.976L54.894 49.1457C55.8243 48.8966 56.7179 48.5265 57.5519 48.0449L60.6003 50.4159C60.6934 50.4883 60.8097 50.5242 60.9274 50.5169C61.0451 50.5096 61.1561 50.4596 61.2395 50.3762L63.9768 47.6389C64.0602 47.5556 64.1103 47.4446 64.1177 47.3269C64.1251 47.2092 64.0893 47.0929 64.0169 46.9997L61.646 43.9514C62.127 43.1171 62.4969 42.2236 62.7463 41.2934L66.5771 40.8149C66.6938 40.8001 66.8012 40.7432 66.879 40.6549C66.9569 40.5667 66.9999 40.4531 67 40.3354V36.4644C67 36.3465 66.9569 36.2327 66.8788 36.1443C66.8008 36.0559 66.6931 35.999 66.5761 35.9844ZM52 43.7225C50.9473 43.7225 49.9182 43.4103 49.0429 42.8255C48.1676 42.2406 47.4854 41.4093 47.0826 40.4368C46.6797 39.4642 46.5743 38.394 46.7797 37.3615C46.9851 36.329 47.492 35.3806 48.2364 34.6363C48.9807 33.8919 49.9291 33.385 50.9616 33.1796C51.9941 32.9742 53.0643 33.0796 54.0369 33.4825C55.0094 33.8853 55.8407 34.5675 56.4256 35.4428C57.0104 36.3181 57.3226 37.3472 57.3226 38.3999C57.3226 39.8115 56.7618 41.1654 55.7636 42.1635C54.7655 43.1617 53.4116 43.7225 52 43.7225Z" fill="url(#paint9_linear_403_24356)"/>
<path opacity="0.09" fill-rule="evenodd" clip-rule="evenodd" d="M76.7008 50.8611C75.9833 50.8611 75.4016 51.4428 75.4016 52.1603V75.5454C75.4016 76.2629 75.9833 76.8446 76.7008 76.8446C77.4183 76.8446 78 76.2629 78 75.5454V52.1603C78 51.4428 77.4183 50.8611 76.7008 50.8611ZM69.3388 58.1565C69.3388 57.439 69.9205 56.8573 70.638 56.8573C71.3555 56.8573 71.9372 57.439 71.9372 58.1565V75.5454C71.9372 76.263 71.3555 76.8446 70.638 76.8446C69.9205 76.8446 69.3388 76.263 69.3388 75.5454V58.1565ZM40.324 60.8547C39.6064 60.8547 39.0248 61.4363 39.0248 62.1538V75.5453C39.0248 76.2628 39.6064 76.8445 40.324 76.8445C41.0415 76.8445 41.6231 76.2628 41.6231 75.5453V62.1538C41.6231 61.4363 41.0415 60.8547 40.324 60.8547ZM32.962 65.4853C32.962 64.7678 33.5436 64.1861 34.2612 64.1861C34.9787 64.1861 35.5603 64.7678 35.5603 65.4853V75.5456C35.5603 76.2631 34.9787 76.8447 34.2612 76.8447C33.5436 76.8447 32.962 76.2631 32.962 75.5456V65.4853ZM26.8992 68.8163C26.8992 68.0988 27.4808 67.5172 28.1983 67.5172C28.9159 67.5172 29.4975 68.0988 29.4975 68.8163V75.5454C29.4975 76.2629 28.9159 76.8446 28.1983 76.8446C27.4808 76.8446 26.8992 76.2629 26.8992 75.5454V68.8163ZM45.0876 67.4837C45.0876 66.7662 45.6693 66.1846 46.3868 66.1846C47.1043 66.1846 47.6859 66.7662 47.6859 67.4837V75.5453C47.6859 76.2628 47.1043 76.8445 46.3868 76.8445C45.6693 76.8445 45.0876 76.2628 45.0876 75.5453V67.4837ZM52.4496 62.8535C51.7321 62.8535 51.1504 63.4352 51.1504 64.1527V75.5455C51.1504 76.263 51.7321 76.8446 52.4496 76.8446C53.1671 76.8446 53.7488 76.263 53.7488 75.5455V64.1527C53.7488 63.4352 53.1671 62.8535 52.4496 62.8535ZM57.2132 72.1476C57.2132 71.4301 57.7949 70.8484 58.5124 70.8484C59.2299 70.8484 59.8116 71.4301 59.8116 72.1476V75.5454C59.8116 76.2629 59.2299 76.8446 58.5124 76.8446C57.7949 76.8446 57.2132 76.2629 57.2132 75.5454V72.1476ZM64.5752 64.1861C63.8577 64.1861 63.276 64.7678 63.276 65.4853V75.5456C63.276 76.2631 63.8577 76.8447 64.5752 76.8447C65.2927 76.8447 65.8744 76.2631 65.8744 75.5456V65.4853C65.8744 64.7678 65.2927 64.1861 64.5752 64.1861Z" fill="url(#paint10_linear_403_24356)"/>
<path d="M52.9287 40.4791C53.064 40.3841 53.2437 40.2079 53.2437 39.771C53.2437 39.4606 53.0331 39.2746 52.5834 39.0821V40.6331C52.7146 40.5929 52.8354 40.5451 52.9287 40.4791Z" fill="#39B8F2"/>
<path d="M52 31.4002C48.1401 31.4002 45.0001 34.5402 45.0001 38.4001C45.0001 42.26 48.1401 45.4001 52 45.4001C55.8599 45.4001 59 42.26 59 38.4001C59 34.5402 55.8599 31.4002 52 31.4002ZM54.4104 39.7716C54.4104 40.6751 53.9694 41.1745 53.5989 41.4346C53.309 41.6382 52.9596 41.7595 52.5834 41.8295V43.0668H51.4167V41.8785C50.7453 41.8278 50.0605 41.668 49.4684 41.4545L48.92 41.2567L49.3161 40.1595L49.865 40.3578C50.4017 40.5515 50.9349 40.667 51.4167 40.7113V38.6644C50.4898 38.3319 49.4614 37.8127 49.4614 36.4932C49.4614 35.8352 49.7665 35.2922 50.3212 34.9643C50.6374 34.7777 51.0177 34.6767 51.4167 34.6295V33.7335H52.5834V34.6382C53.2699 34.7182 53.8988 34.9066 54.2494 35.1002L54.7609 35.3808L54.1992 36.4034L53.6882 36.1222C53.4356 35.9834 53.0232 35.8702 52.5834 35.809V37.8296C53.4747 38.1446 54.4104 38.6008 54.4104 39.7716Z" fill="url(#paint11_linear_403_24356)"/>
<path d="M50.9156 35.9695C50.7143 36.0885 50.628 36.2449 50.628 36.4934C50.628 36.9349 50.8783 37.1759 51.4167 37.4098V35.8079C51.2253 35.8412 51.0492 35.8902 50.9156 35.9695Z" fill="#39B8F2"/>
<defs>
<filter id="filter0_f_403_24356" x="10.6" y="30.2" width="83.2" height="83.2" filterUnits="userSpaceOnUse" color-interpolation-filters="sRGB">
<feFlood flood-opacity="0" result="BackgroundImageFix"/>
<feBlend mode="normal" in="SourceGraphic" in2="BackgroundImageFix" result="shape"/>
<feGaussianBlur stdDeviation="8" result="effect1_foregroundBlur_403_24356"/>
</filter>
<linearGradient id="paint0_linear_403_24356" x1="42.3074" y1="3.77705" x2="-11.9714" y2="27.9387" gradientUnits="userSpaceOnUse">
<stop stop-color="#3F6BB8"/>
<stop offset="1" stop-color="#DAE0ED"/>
</linearGradient>
<linearGradient id="paint1_linear_403_24356" x1="52.2" y1="63.48" x2="52.2" y2="91" gradientUnits="userSpaceOnUse">
<stop stop-color="#38BBF9"/>
<stop offset="1" stop-color="#38BBF9" stop-opacity="0"/>
</linearGradient>
<linearGradient id="paint2_linear_403_24356" x1="67.56" y1="75.96" x2="29.8" y2="65.72" gradientUnits="userSpaceOnUse">
<stop stop-color="#12B0FA"/>
<stop offset="1" stop-color="#83D8FF"/>
</linearGradient>
<linearGradient id="paint3_linear_403_24356" x1="59.88" y1="59.64" x2="47.4" y2="68.6" gradientUnits="userSpaceOnUse">
<stop stop-color="#2F50A2"/>
<stop offset="1" stop-color="#2F50A2" stop-opacity="0.77"/>
</linearGradient>
<linearGradient id="paint4_linear_403_24356" x1="69.1843" y1="91.9611" x2="36.2502" y2="91.9611" gradientUnits="userSpaceOnUse">
<stop stop-color="#0D1E47"/>
<stop offset="1" stop-color="#657292"/>
</linearGradient>
<linearGradient id="paint5_linear_403_24356" x1="50.1572" y1="59.0334" x2="53.7644" y2="67.33" gradientUnits="userSpaceOnUse">
<stop stop-color="#12B0FA"/>
<stop offset="1" stop-color="#12B0FA" stop-opacity="0.42"/>
</linearGradient>
<linearGradient id="paint6_linear_403_24356" x1="72.8842" y1="25.3214" x2="5.03577" y2="55.5235" gradientUnits="userSpaceOnUse">
<stop stop-color="#F2F5FB"/>
<stop offset="1" stop-color="#DAE0ED"/>
</linearGradient>
<linearGradient id="paint7_linear_403_24356" x1="52" y1="42.2" x2="52" y2="76.6" gradientUnits="userSpaceOnUse">
<stop stop-color="#38BBF9"/>
<stop offset="1" stop-color="#38BBF9" stop-opacity="0"/>
</linearGradient>
<linearGradient id="paint8_linear_403_24356" x1="32.8" y1="57.8" x2="80" y2="45" gradientUnits="userSpaceOnUse">
<stop stop-color="#12B0FA"/>
<stop offset="1" stop-color="#83D8FF"/>
</linearGradient>
<linearGradient id="paint9_linear_403_24356" x1="40" y1="33.3999" x2="59.5" y2="47.3999" gradientUnits="userSpaceOnUse">
<stop stop-color="#2F50A2"/>
<stop offset="1" stop-color="#2F50A2" stop-opacity="0.77"/>
</linearGradient>
<linearGradient id="paint10_linear_403_24356" x1="30.7696" y1="77.8014" x2="71.9372" y2="77.8014" gradientUnits="userSpaceOnUse">
<stop stop-color="#0D1E47"/>
<stop offset="1" stop-color="#657292"/>
</linearGradient>
<linearGradient id="paint11_linear_403_24356" x1="55.7239" y1="31.4611" x2="49.1483" y2="46.585" gradientUnits="userSpaceOnUse">
<stop stop-color="#12B0FA"/>
<stop offset="1" stop-color="#76D3FF"/>
</linearGradient>
</defs>
</svg>
