<svg width="749" height="360" viewBox="0 0 749 360" fill="none" xmlns="http://www.w3.org/2000/svg">
<rect x="-10" width="411" height="8" rx="4" fill="#2F50A2"/>
<rect x="-10" y="15" width="355" height="8" rx="4" fill="#2F50A2"/>
<rect x="-10" y="30" width="224" height="8" rx="4" fill="#2F50A2"/>
<rect x="-10" y="45" width="197" height="8" rx="4" fill="#2F50A2"/>
<rect x="-10" y="60" width="229" height="8" rx="4" fill="#2F50A2"/>
<rect x="-10" y="75" width="189" height="8" rx="4" fill="#2F50A2"/>
<rect x="-10" y="90" width="142" height="8" rx="4" fill="#2F50A2"/>
<rect x="-10" y="105" width="239" height="8" rx="4" fill="#2F50A2"/>
<rect x="-10" y="120" width="201" height="8" rx="4" fill="#2F50A2"/>
<rect x="-10" y="135" width="195" height="8" rx="4" fill="#2F50A2"/>
<rect x="-10" y="150" width="199" height="8" rx="4" fill="#2F50A2"/>
<rect x="-10" y="165" width="168" height="8" rx="4" fill="#2F50A2"/>
<rect x="-10" y="180" width="116" height="8" rx="4" fill="#12B0FA"/>
<rect width="72" height="8" rx="4" transform="matrix(-1 0 0 1 186 180)" fill="#2F50A2"/>
<rect x="-10" y="195" width="192" height="8" rx="4" fill="#2F50A2"/>
<rect x="-10" y="210" width="250" height="8" rx="4" fill="#2F50A2"/>
<rect x="-10" y="225" width="229" height="8" rx="4" fill="#2F50A2"/>
<rect x="-10" y="240" width="141" height="8" rx="4" fill="#2F50A2"/>
<rect x="-10" y="255" width="206" height="8" rx="4" fill="#2F50A2"/>
<rect x="-10" y="270" width="179" height="8" rx="4" fill="#2F50A2"/>
<rect x="-10" y="285" width="257" height="8" rx="4" fill="#2F50A2"/>
<rect x="-10" y="300" width="184" height="8" rx="4" fill="#2F50A2"/>
<rect x="-10" y="315" width="364" height="8" rx="4" fill="#2F50A2"/>
<rect x="-10" y="330" width="230" height="8" rx="4" fill="#2F50A2"/>
<rect x="-10" y="345" width="169" height="8" rx="4" fill="#2F50A2"/>
</svg>
