<svg width="126" height="24" viewBox="0 0 126 24" fill="none" xmlns="http://www.w3.org/2000/svg">
<path d="M87.1557 0.689779C86.9629 0.245188 86.5942 0.000524521 86.1173 0.000524521C85.6294 0.000524521 85.2548 0.245512 85.0644 0.685741L75.3476 22.3043C75.2105 22.5789 75.1934 22.8823 75.306 23.2009C75.4264 23.4873 75.6267 23.6945 75.8938 23.8127C76.0527 23.8881 76.2153 23.9264 76.3836 23.9264C76.5186 23.9264 76.6575 23.9015 76.8007 23.8515C77.0864 23.7313 77.2931 23.5311 77.4149 23.2575L79.6495 18.283L80.3676 16.6999L86.1168 3.93063L94.8027 23.257C94.9986 23.6948 95.3573 23.9262 95.8397 23.9262C96.0112 23.9262 96.1764 23.887 96.3109 23.8188C96.6003 23.6969 96.8102 23.4788 96.9196 23.1819C97.0239 22.883 97.015 22.5923 96.8926 22.3164L87.1557 0.689779Z" fill="#3549A5"/>
<path d="M49.3031 0.000579834H31.9951C31.6766 0.000579834 31.3951 0.1217 31.1897 0.342463C30.9628 0.569361 30.8478 0.840345 30.8478 1.14799C30.8478 1.46274 30.9659 1.74116 31.1896 1.95368C31.4021 2.17719 31.6805 2.2954 31.9951 2.2954H39.4935V22.7788C39.4935 23.0977 39.6148 23.3791 39.8354 23.5844C40.0622 23.8113 40.3331 23.9263 40.6409 23.9263C40.9552 23.9263 41.2335 23.8082 41.4465 23.5846C41.6701 23.372 41.7884 23.0936 41.7884 22.7788V2.2954H49.3031C49.6108 2.2954 49.8819 2.18042 50.1085 1.95352C50.3215 1.74083 50.4342 1.46226 50.4342 1.14799C50.4342 0.84503 50.3273 0.57679 50.1087 0.342463C49.8819 0.115726 49.6108 0.000579834 49.3031 0.000579834Z" fill="#3549A5"/>
<path d="M71.4236 21.9655C71.1977 21.7547 70.9295 21.648 70.6265 21.648H57.8761V1.14799C57.8761 0.84503 57.7692 0.57679 57.5506 0.342463C57.3238 0.115726 57.0527 0.000579834 56.7452 0.000579834C56.4264 0.000579834 56.1452 0.1217 55.9395 0.342463C55.7128 0.569361 55.5978 0.840345 55.5978 1.14799V22.7788C55.5978 23.0938 55.7158 23.372 55.9395 23.5846C56.152 23.8082 56.4304 23.9263 56.7452 23.9263H70.6265C70.9341 23.9263 71.2053 23.8113 71.4317 23.5846C71.6449 23.3717 71.7576 23.0931 71.7576 22.7788C71.7576 22.4759 71.6507 22.2077 71.4401 21.9817L71.4236 21.9655Z" fill="#3549A5"/>
<path d="M117.088 12.7329C116.052 12.1648 114.434 11.6646 112.272 11.2453L112 11.1974C110.291 10.8642 108.578 10.4389 106.895 9.9287C106.809 9.90738 106.686 9.87525 106.536 9.8352C105.413 9.49654 104.624 9.19907 104.19 8.9515C103.521 8.56763 103.096 8.04908 102.89 7.36273C102.533 6.21322 102.76 5.22537 103.584 4.34168C105.028 2.77407 107.58 2.09579 111.165 2.32738H111.167C114.146 2.50663 116.505 3.45072 118.187 5.14236C118.413 5.35311 118.681 5.46002 118.984 5.46002C119.303 5.46002 119.574 5.35053 119.79 5.13445C120.017 4.90771 120.132 4.63124 120.132 4.31277C120.132 4.00497 120.017 3.73398 119.79 3.50724C117.707 1.42447 114.858 0.255741 111.321 0.0338497C109.866 -0.0541649 108.439 0.0301361 107.083 0.283033C104.802 0.685637 103.06 1.52685 101.905 2.78359C101.27 3.47592 100.838 4.30551 100.619 5.24911C100.4 6.19368 100.424 7.12857 100.691 8.03261C101.062 9.22653 101.796 10.1667 102.874 10.8277C103.513 11.2161 104.499 11.6062 105.877 12.017C106.012 12.0619 106.135 12.1008 106.246 12.1343C107.991 12.6578 109.781 13.0943 111.551 13.4283L111.842 13.4963C113.768 13.869 115.169 14.2858 116.002 14.7336C116.987 15.276 117.562 16.0241 117.762 17.0195C117.939 17.916 117.721 18.7286 117.092 19.5078C116.849 19.8182 116.555 20.0687 116.216 20.2525C114.057 21.4213 111.575 21.864 108.84 21.5681C106.124 21.284 103.963 20.3555 102.417 18.8087C102.19 18.5818 101.919 18.4668 101.611 18.4668C101.292 18.4668 101.011 18.588 100.806 18.8087C100.579 19.0355 100.464 19.3064 100.464 19.6143C100.464 19.933 100.585 20.2144 100.805 20.419C102.744 22.3698 105.398 23.5217 108.688 23.8429C109.207 23.8982 109.74 23.9263 110.273 23.9263C112.895 23.9263 115.259 23.3639 117.296 22.2566C117.909 21.9327 118.443 21.4925 118.884 20.948C119.944 19.6341 120.323 18.1649 120.011 16.5806C119.677 14.8991 118.693 13.6044 117.088 12.7329Z" fill="#3549A5"/>
<path d="M20.589 0.6731C20.4061 0.266783 19.9997 0.00435829 19.554 0.00435829C19.1081 0.00451851 18.7021 0.267267 18.5192 0.673746L11.3594 16.5978C11.103 17.1685 11.3586 17.8415 11.9295 18.0982C12.5002 18.3548 13.1731 18.0988 13.4297 17.5285L19.5552 3.90458L28.2805 23.2776C28.4636 23.6839 28.8699 23.9465 29.3158 23.9465C29.477 23.9465 29.6336 23.9128 29.7812 23.8462C30.3516 23.5893 30.6068 22.916 30.35 22.3455L20.589 0.6731Z" fill="#3549A5"/>
<path d="M17.6737 21.6231H1.18836C0.533186 21.6231 0 22.1563 0 22.8116C0 23.4668 0.533186 24 1.18836 24H17.6737C18.3289 24 18.862 23.4668 18.862 22.8116C18.862 22.1563 18.3289 21.6231 17.6737 21.6231Z" fill="#A0D3F2"/>
<path d="M123.537 20.8817C122.679 20.8817 121.98 21.5802 121.98 22.4389C121.98 23.2974 122.679 23.9958 123.537 23.9958C124.396 23.9958 125.094 23.2974 125.094 22.4389C125.094 21.5802 124.396 20.8817 123.537 20.8817Z" fill="#A0D3F2"/>
</svg>
