<svg width="126" height="24" viewBox="0 0 126 24" fill="none" xmlns="http://www.w3.org/2000/svg">
<path d="M87.1557 0.68984C86.9629 0.245249 86.5942 0.000585556 86.1173 0.000585556C85.6294 0.000585556 85.2548 0.245573 85.0644 0.685802L75.3476 22.3044C75.2105 22.5789 75.1934 22.8824 75.306 23.201C75.4264 23.4873 75.6267 23.6946 75.8938 23.8128C76.0527 23.8882 76.2153 23.9265 76.3836 23.9265C76.5186 23.9265 76.6575 23.9016 76.8007 23.8515C77.0864 23.7313 77.2931 23.5311 77.4149 23.2575L79.6495 18.2831L80.3676 16.7L86.1168 3.93069L94.8027 23.2571C94.9986 23.6949 95.3573 23.9263 95.8397 23.9263C96.0112 23.9263 96.1764 23.887 96.3109 23.8189C96.6003 23.697 96.8102 23.4788 96.9196 23.182C97.0239 22.8831 97.015 22.5924 96.8926 22.3165L87.1557 0.68984Z" fill="white"/>
<path d="M49.3031 0.000762939H31.9951C31.6766 0.000762939 31.3951 0.121883 31.1897 0.342646C30.9628 0.569544 30.8478 0.840528 30.8478 1.14817C30.8478 1.46292 30.9659 1.74134 31.1896 1.95386C31.4021 2.17737 31.6805 2.29558 31.9951 2.29558H39.4935V22.779C39.4935 23.0978 39.6148 23.3793 39.8354 23.5846C40.0622 23.8115 40.3331 23.9265 40.6409 23.9265C40.9552 23.9265 41.2335 23.8084 41.4465 23.5847C41.6701 23.3722 41.7884 23.0938 41.7884 22.779V2.29558H49.3031C49.6108 2.29558 49.8819 2.1806 50.1085 1.9537C50.3215 1.74101 50.4342 1.46244 50.4342 1.14817C50.4342 0.845213 50.3273 0.576973 50.1087 0.342646C49.8819 0.11591 49.6108 0.000762939 49.3031 0.000762939Z" fill="white"/>
<path d="M71.4236 21.9656C71.1977 21.7549 70.9295 21.6481 70.6265 21.6481H57.8761V1.14817C57.8761 0.845213 57.7692 0.576973 57.5506 0.342646C57.3238 0.11591 57.0527 0.000762939 56.7452 0.000762939C56.4264 0.000762939 56.1452 0.121883 55.9395 0.342646C55.7128 0.569544 55.5978 0.840528 55.5978 1.14817V22.779C55.5978 23.0939 55.7158 23.3722 55.9395 23.5847C56.152 23.8084 56.4304 23.9265 56.7452 23.9265H70.6265C70.9341 23.9265 71.2053 23.8115 71.4317 23.5847C71.6449 23.3719 71.7576 23.0933 71.7576 22.779C71.7576 22.4761 71.6507 22.2079 71.4401 21.9819L71.4236 21.9656Z" fill="white"/>
<path d="M117.088 12.7331C116.052 12.165 114.434 11.6648 112.272 11.2455L112 11.1976C110.291 10.8644 108.578 10.439 106.895 9.92888C106.809 9.90757 106.686 9.87543 106.536 9.83538C105.413 9.49673 104.624 9.19926 104.19 8.95169C103.521 8.56782 103.096 8.04926 102.89 7.36292C102.533 6.21341 102.76 5.22556 103.584 4.34186C105.028 2.77425 107.58 2.09598 111.165 2.32756H111.167C114.146 2.50682 116.505 3.4509 118.187 5.14255C118.413 5.35329 118.681 5.46021 118.984 5.46021C119.303 5.46021 119.574 5.35071 119.79 5.13463C120.017 4.9079 120.132 4.63142 120.132 4.31296C120.132 4.00515 120.017 3.73416 119.79 3.50743C117.707 1.42465 114.858 0.255924 111.321 0.0340328C109.866 -0.0539818 108.439 0.0303192 107.083 0.283216C104.802 0.68582 103.06 1.52704 101.905 2.78378C101.27 3.4761 100.838 4.30569 100.619 5.24929C100.4 6.19387 100.424 7.12875 100.691 8.03279C101.062 9.22671 101.796 10.1669 102.874 10.8279C103.513 11.2162 104.499 11.6063 105.877 12.0172C106.012 12.0621 106.135 12.101 106.246 12.1345C107.991 12.658 109.781 13.0945 111.551 13.4284L111.842 13.4964C113.768 13.8691 115.169 14.286 116.002 14.7338C116.987 15.2762 117.562 16.0243 117.762 17.0197C117.939 17.9162 117.721 18.7288 117.092 19.508C116.849 19.8184 116.555 20.0689 116.216 20.2527C114.057 21.4215 111.575 21.8642 108.84 21.5683C106.124 21.2841 103.963 20.3557 102.417 18.8089C102.19 18.582 101.919 18.467 101.611 18.467C101.292 18.467 101.011 18.5881 100.806 18.8089C100.579 19.0357 100.464 19.3066 100.464 19.6145C100.464 19.9332 100.585 20.2146 100.805 20.4191C102.744 22.37 105.398 23.5219 108.688 23.8431C109.207 23.8984 109.74 23.9265 110.273 23.9265C112.895 23.9265 115.259 23.3641 117.296 22.2568C117.909 21.9328 118.443 21.4926 118.884 20.9482C119.944 19.6343 120.323 18.1651 120.011 16.5808C119.677 14.8993 118.693 13.6046 117.088 12.7331Z" fill="white"/>
<path d="M20.589 0.673222C20.4061 0.266905 19.9997 0.00448036 19.554 0.00448036C19.1081 0.00464058 18.7021 0.267389 18.5192 0.673868L11.3594 16.5979C11.103 17.1686 11.3586 17.8416 11.9295 18.0983C12.5002 18.355 13.1731 18.099 13.4297 17.5286L19.5552 3.9047L28.2805 23.2777C28.4636 23.6841 28.8699 23.9467 29.3158 23.9467C29.477 23.9467 29.6336 23.9129 29.7812 23.8464C30.3516 23.5894 30.6068 22.9161 30.35 22.3456L20.589 0.673222Z" fill="white"/>
<path d="M17.6737 21.6232H1.18836C0.533186 21.6232 0 22.1563 0 22.8116C0 23.4668 0.533186 24.0001 1.18836 24.0001H17.6737C18.3289 24.0001 18.862 23.4668 18.862 22.8116C18.862 22.1563 18.3289 21.6232 17.6737 21.6232Z" fill="#A0D3F2"/>
<path d="M123.537 20.8819C122.679 20.8819 121.98 21.5803 121.98 22.439C121.98 23.2975 122.679 23.996 123.537 23.996C124.396 23.996 125.094 23.2975 125.094 22.439C125.094 21.5803 124.396 20.8819 123.537 20.8819Z" fill="#A0D3F2"/>
</svg>
