<svg width="114" height="119" viewBox="0 0 114 119" fill="none" xmlns="http://www.w3.org/2000/svg">
<g filter="url(#filter0_d_403_24325)">
<circle opacity="0.18" cx="57" cy="52" r="52" fill="#FDB022"/>
<g opacity="0.2" filter="url(#filter1_f_403_24325)">
<path opacity="0.3" d="M55.7587 64.7134C56.3158 64.3389 57.0441 64.3389 57.6013 64.7134L81.5013 80.7758C82.475 81.4302 82.475 82.8629 81.5012 83.5174L57.6013 99.5798C57.0441 99.9542 56.3158 99.9542 55.7587 99.5798L31.8587 83.5174C30.8849 82.8629 30.8849 81.4302 31.8587 80.7758L55.7587 64.7134Z" fill="url(#paint0_linear_403_24325)"/>
<path opacity="0.8" d="M55.7587 58.1069C56.3158 57.7325 57.0441 57.7325 57.6013 58.1069L81.5013 74.1693C82.475 74.8237 82.475 76.2564 81.5012 76.9109L57.6013 92.9733C57.0441 93.3477 56.3158 93.3477 55.7587 92.9733L31.8587 76.9109C30.8849 76.2564 30.8849 74.8237 31.8587 74.1693L55.7587 58.1069Z" fill="url(#paint1_linear_403_24325)" fill-opacity="0.8"/>
<path d="M55.8201 51.5918C56.3401 51.2423 57.0199 51.2423 57.5398 51.5918L81.4398 67.6542C82.3487 68.265 82.3487 69.6022 81.4398 70.213L57.5398 86.2754C57.0199 86.6249 56.3401 86.6249 55.8201 86.2754L31.9202 70.213C31.0113 69.6022 31.0113 68.265 31.9202 67.6542L55.8201 51.5918Z" fill="url(#paint2_linear_403_24325)" stroke="url(#paint3_linear_403_24325)" stroke-width="0.220215"/>
<g clip-path="url(#clip0_403_24325)">
<path d="M56.6809 72.34C56.9417 72.34 57.1865 72.2128 57.3361 71.9984L62.9361 63.9984C63.1073 63.7544 63.1265 63.4352 62.9905 63.1704C62.8521 62.9056 62.5793 62.74 62.2809 62.74H51.0793C50.7809 62.74 50.5081 62.9056 50.3697 63.1704C50.2337 63.4352 50.2529 63.7544 50.4241 63.9984L56.0241 71.9984C56.1737 72.2128 56.4185 72.34 56.6793 72.34H56.6809Z" fill="url(#paint4_linear_403_24325)"/>
<path d="M50.28 74.74C50.28 74.2984 50.6376 73.94 51.08 73.94H62.28C62.7224 73.94 63.08 74.2984 63.08 74.74C63.08 75.1816 62.7224 75.54 62.28 75.54H51.08C50.6376 75.54 50.28 75.1816 50.28 74.74Z" fill="url(#paint5_linear_403_24325)"/>
</g>
</g>
<path opacity="0.3" d="M55.8484 40.4068C56.5448 39.9387 57.4552 39.9387 58.1516 40.4068L88.0266 60.4848C89.2438 61.3028 89.2438 63.0937 88.0266 63.9118L58.1516 83.9898C57.4552 84.4578 56.5448 84.4578 55.8484 83.9898L25.9735 63.9118C24.7562 63.0937 24.7562 61.3028 25.9735 60.4848L55.8484 40.4068Z" fill="url(#paint6_linear_403_24325)"/>
<path opacity="0.9" d="M55.8484 32.1486C56.5448 31.6806 57.4552 31.6806 58.1516 32.1486L88.0266 52.2267C89.2438 53.0447 89.2438 54.8356 88.0266 55.6537L58.1516 75.7317C57.4552 76.1997 56.5448 76.1997 55.8484 75.7317L25.9735 55.6537C24.7562 54.8356 24.7562 53.0447 25.9735 52.2267L55.8484 32.1486Z" fill="url(#paint7_linear_403_24325)" fill-opacity="0.8"/>
<g filter="url(#filter2_b_403_24325)">
<path d="M55.8484 23.8905C56.5448 23.4225 57.4552 23.4225 58.1516 23.8905L88.0266 43.9685C89.2438 44.7866 89.2438 46.5775 88.0266 47.3955L58.1516 67.4736C57.4552 67.9416 56.5448 67.9416 55.8484 67.4736L25.9735 47.3955C24.7562 46.5775 24.7562 44.7866 25.9735 43.9685L55.8484 23.8905Z" fill="url(#paint8_linear_403_24325)"/>
<path d="M58.0748 24.0048L87.9498 44.0828C89.0859 44.8463 89.0859 46.5178 87.9498 47.2813L58.0748 67.3593C57.4249 67.7961 56.5752 67.7961 55.9252 67.3593L26.0502 47.2813C24.9141 46.5178 24.9141 44.8463 26.0502 44.0828L55.9252 24.0048C56.5752 23.5679 57.4249 23.5679 58.0748 24.0048Z" stroke="url(#paint9_linear_403_24325)" stroke-width="0.275269"/>
</g>
<g clip-path="url(#clip1_403_24325)">
<path d="M57.0011 49.9401C57.3271 49.9401 57.6331 49.7811 57.8201 49.5131L64.8201 39.513C65.0341 39.208 65.0581 38.809 64.8881 38.478C64.7151 38.147 64.3741 37.94 64.0011 37.94H49.9991C49.6261 37.94 49.2851 38.147 49.1121 38.478C48.9421 38.809 48.9661 39.208 49.1801 39.513L56.1801 49.5131C56.3671 49.7811 56.6731 49.9401 56.9991 49.9401H57.0011V49.9401Z" fill="url(#paint10_linear_403_24325)"/>
<path d="M49 52.9401C49 52.3881 49.447 51.9401 50 51.9401H64C64.553 51.9401 65 52.3881 65 52.9401C65 53.4921 64.553 53.9401 64 53.9401H50C49.447 53.9401 49 53.4921 49 52.9401Z" fill="url(#paint11_linear_403_24325)"/>
</g>
</g>
<defs>
<filter id="filter0_d_403_24325" x="4.76837e-07" y="0" width="114" height="119" filterUnits="userSpaceOnUse" color-interpolation-filters="sRGB">
<feFlood flood-opacity="0" result="BackgroundImageFix"/>
<feColorMatrix in="SourceAlpha" type="matrix" values="0 0 0 0 0 0 0 0 0 0 0 0 0 0 0 0 0 0 127 0" result="hardAlpha"/>
<feMorphology radius="5" operator="erode" in="SourceAlpha" result="effect1_dropShadow_403_24325"/>
<feOffset dy="10"/>
<feGaussianBlur stdDeviation="5"/>
<feColorMatrix type="matrix" values="0 0 0 0 0.0627451 0 0 0 0 0.0941176 0 0 0 0 0.156863 0 0 0 0.03 0"/>
<feBlend mode="normal" in2="BackgroundImageFix" result="effect1_dropShadow_403_24325"/>
<feBlend mode="normal" in="SourceGraphic" in2="effect1_dropShadow_403_24325" result="shape"/>
</filter>
<filter id="filter1_f_403_24325" x="17" y="38.4196" width="79.36" height="74.241" filterUnits="userSpaceOnUse" color-interpolation-filters="sRGB">
<feFlood flood-opacity="0" result="BackgroundImageFix"/>
<feBlend mode="normal" in="SourceGraphic" in2="BackgroundImageFix" result="shape"/>
<feGaussianBlur stdDeviation="6.40001" result="effect1_foregroundBlur_403_24325"/>
</filter>
<filter id="filter2_b_403_24325" x="22.996" y="21.475" width="68.008" height="48.4141" filterUnits="userSpaceOnUse" color-interpolation-filters="sRGB">
<feFlood flood-opacity="0" result="BackgroundImageFix"/>
<feGaussianBlur in="BackgroundImageFix" stdDeviation="1.03226"/>
<feComposite in2="SourceAlpha" operator="in" result="effect1_backgroundBlur_403_24325"/>
<feBlend mode="normal" in="SourceGraphic" in2="effect1_backgroundBlur_403_24325" result="shape"/>
</filter>
<linearGradient id="paint0_linear_403_24325" x1="54.2026" y1="86.5508" x2="17.5918" y2="85.725" gradientUnits="userSpaceOnUse">
<stop stop-color="#96A7CF"/>
<stop offset="1" stop-color="#96A7CF" stop-opacity="0"/>
</linearGradient>
<linearGradient id="paint1_linear_403_24325" x1="70.1105" y1="62.1096" x2="43.2495" y2="88.9705" gradientUnits="userSpaceOnUse">
<stop stop-color="#2F50A2"/>
<stop offset="1" stop-color="#3D5797"/>
</linearGradient>
<linearGradient id="paint2_linear_403_24325" x1="60.2585" y1="54.6196" x2="45.6692" y2="90.6798" gradientUnits="userSpaceOnUse">
<stop stop-color="#12B0FA" stop-opacity="0.97"/>
<stop offset="1" stop-color="#21BAEB" stop-opacity="0.68"/>
</linearGradient>
<linearGradient id="paint3_linear_403_24325" x1="56.4047" y1="51.5916" x2="43.2495" y2="82.3641" gradientUnits="userSpaceOnUse">
<stop stop-color="#21ACED"/>
<stop offset="1" stop-color="#5AB6EA" stop-opacity="0.1"/>
</linearGradient>
<linearGradient id="paint4_linear_403_24325" x1="50.28" y1="69.94" x2="81.08" y2="52.34" gradientUnits="userSpaceOnUse">
<stop stop-color="white"/>
<stop offset="1" stop-color="white" stop-opacity="0"/>
</linearGradient>
<linearGradient id="paint5_linear_403_24325" x1="49.48" y1="76.74" x2="71.08" y2="72.74" gradientUnits="userSpaceOnUse">
<stop stop-color="white"/>
<stop offset="1" stop-color="white" stop-opacity="0"/>
</linearGradient>
<linearGradient id="paint6_linear_403_24325" x1="53.9033" y1="67.7036" x2="8.13981" y2="66.6713" gradientUnits="userSpaceOnUse">
<stop stop-color="#96A7CF"/>
<stop offset="1" stop-color="#96A7CF" stop-opacity="0"/>
</linearGradient>
<linearGradient id="paint7_linear_403_24325" x1="73.7881" y1="37.152" x2="40.2119" y2="70.7282" gradientUnits="userSpaceOnUse">
<stop stop-color="#2F50A2"/>
<stop offset="1" stop-color="#3D5797"/>
</linearGradient>
<linearGradient id="paint8_linear_403_24325" x1="61.4731" y1="27.7895" x2="43.2365" y2="72.8648" gradientUnits="userSpaceOnUse">
<stop stop-color="#12B0FA" stop-opacity="0.97"/>
<stop offset="1" stop-color="#21BAEB" stop-opacity="0.68"/>
</linearGradient>
<linearGradient id="paint9_linear_403_24325" x1="56.6559" y1="24.0046" x2="40.2119" y2="62.4701" gradientUnits="userSpaceOnUse">
<stop stop-color="#21ACED"/>
<stop offset="1" stop-color="#5AB6EA" stop-opacity="0.1"/>
</linearGradient>
<linearGradient id="paint10_linear_403_24325" x1="49" y1="46.94" x2="87.5001" y2="24.9401" gradientUnits="userSpaceOnUse">
<stop stop-color="white"/>
<stop offset="1" stop-color="white" stop-opacity="0"/>
</linearGradient>
<linearGradient id="paint11_linear_403_24325" x1="48" y1="55.4401" x2="75" y2="50.4401" gradientUnits="userSpaceOnUse">
<stop stop-color="white"/>
<stop offset="1" stop-color="white" stop-opacity="0"/>
</linearGradient>
<clipPath id="clip0_403_24325">
<rect width="12.8" height="12.8" fill="white" transform="translate(50.28 62.74)"/>
</clipPath>
<clipPath id="clip1_403_24325">
<rect width="16" height="16" fill="white" transform="translate(49 37.94)"/>
</clipPath>
</defs>
</svg>
