<svg width="126" height="136" viewBox="0 0 126 136" fill="none" xmlns="http://www.w3.org/2000/svg">
<circle opacity="0.18" cx="63" cy="52" r="52" fill="#36BFFA"/>
<g opacity="0.4" filter="url(#filter0_f_403_24346)">
<g filter="url(#filter1_d_403_24346)">
<path d="M63 36L36.5172 47.6364V65.0909C36.5172 81.2364 47.8165 96.3345 63 100C78.1834 96.3345 89.4827 81.2364 89.4827 65.0909V47.6364L63 36Z" fill="url(#paint0_linear_403_24346)"/>
</g>
<path opacity="0.85" d="M63 40.4138L39.8276 50.4451V65.4922C39.8276 79.4107 49.7145 92.4263 63 95.5862C76.2855 92.4263 86.1724 79.4107 86.1724 65.4922V50.4451L63 40.4138Z" fill="url(#paint1_linear_403_24346)"/>
<path opacity="0.11" fill-rule="evenodd" clip-rule="evenodd" d="M66.063 46.6676C66.362 47.1507 66.5193 47.7079 66.5172 48.2759C66.5147 48.9467 66.29 49.5977 65.8782 50.1273C65.4664 50.6568 64.8908 51.035 64.2413 51.2027V77.8621C64.2413 78.0633 64.1614 78.2563 64.0191 78.3985C63.8769 78.5408 63.6839 78.6207 63.4827 78.6207C63.2815 78.6207 63.0886 78.5408 62.9463 78.3985C62.804 78.2563 62.7241 78.0633 62.7241 77.8621V51.2027C62.1741 51.0607 61.675 50.7671 61.2836 50.3555C60.8922 49.9438 60.6242 49.4305 60.5101 48.8741C60.396 48.3176 60.4404 47.7403 60.6382 47.2078C60.836 46.6754 61.1793 46.2091 61.629 45.8621C62.0787 45.5151 62.6168 45.3013 63.1821 45.245C63.7473 45.1887 64.317 45.2922 64.8263 45.5437C65.3356 45.7952 65.7641 46.1846 66.063 46.6676ZM54.3793 57.8239L59.4674 62.912C59.6096 63.0542 59.6896 63.2471 59.6896 63.4483V77.8621C59.6896 78.0633 59.6097 78.2563 59.4674 78.3985C59.3252 78.5408 59.1322 78.6207 58.931 78.6207C58.7298 78.6207 58.5369 78.5408 58.3946 78.3985C58.2523 78.2563 58.1724 78.0633 58.1724 77.8621V63.7624L53.0843 58.6743C52.942 58.5321 52.8621 58.3392 52.8621 58.138V54.9958C52.1469 54.8111 51.5237 54.372 51.1092 53.7607C50.6947 53.1495 50.5173 52.408 50.6104 51.6753C50.7034 50.9426 51.0605 50.269 51.6147 49.7808C52.1689 49.2925 52.8821 49.0232 53.6207 49.0232C54.3592 49.0232 55.0725 49.2925 55.6266 49.7808C56.1808 50.269 56.5379 50.9426 56.631 51.6753C56.724 52.408 56.5467 53.1495 56.1322 53.7607C55.7176 54.372 55.0944 54.8111 54.3793 54.9958V57.8239ZM54.9156 74.2913L51.3448 70.7205V67.8923C52.0599 67.7077 52.6832 67.2686 53.0977 66.6573C53.5122 66.046 53.6895 65.3045 53.5965 64.5718C53.5034 63.8392 53.1463 63.1656 52.5922 62.6773C52.038 62.1891 51.3248 61.9197 50.5862 61.9197C49.8476 61.9197 49.1344 62.1891 48.5802 62.6773C48.026 63.1656 47.669 63.8392 47.5759 64.5718C47.4828 65.3045 47.6602 66.046 48.0747 66.6573C48.4892 67.2686 49.1124 67.7077 49.8276 67.8923V71.0345C49.8276 71.2357 49.9076 71.4286 50.0498 71.5709L53.6207 75.1417V77.8621C53.6207 78.0633 53.7006 78.2563 53.8429 78.3985C53.9851 78.5408 54.1781 78.6207 54.3793 78.6207C54.5805 78.6207 54.7734 78.5408 54.9157 78.3985C55.058 78.2563 55.1379 78.0633 55.1379 77.8621V74.8276C55.1379 74.6265 55.0579 74.4335 54.9156 74.2913ZM79.4138 64.9656C79.4159 64.3975 79.2585 63.8403 78.9596 63.3573C78.6607 62.8743 78.2322 62.4849 77.7229 62.2334C77.2136 61.9819 76.6439 61.8784 76.0786 61.9347C75.5134 61.9909 74.9753 62.2048 74.5256 62.5518C74.0759 62.8988 73.7326 63.365 73.5348 63.8975C73.337 64.43 73.2926 65.0073 73.4067 65.5637C73.5208 66.1202 73.7888 66.6335 74.1802 67.0451C74.5716 67.4568 75.0707 67.7503 75.6207 67.8923V70.7205L72.0498 74.2913C71.9076 74.4335 71.8276 74.6265 71.8276 74.8276V77.8621C71.8276 78.0633 71.9075 78.2563 72.0498 78.3985C72.192 78.5408 72.385 78.6207 72.5862 78.6207C72.7874 78.6207 72.9803 78.5408 73.1226 78.3985C73.2649 78.2563 73.3448 78.0633 73.3448 77.8621V75.1417L76.9156 71.5709C77.0579 71.4286 77.1379 71.2357 77.1379 71.0345V67.8923C77.7874 67.7246 78.363 67.3465 78.7748 66.8169C79.1866 66.2874 79.4113 65.6363 79.4138 64.9656ZM76.3793 52.069C76.3814 51.501 76.2241 50.9438 75.9251 50.4608C75.6262 49.9777 75.1977 49.5883 74.6884 49.3368C74.1791 49.0853 73.6094 48.9818 73.0441 49.0381C72.4789 49.0944 71.9408 49.3082 71.4911 49.6552C71.0414 50.0022 70.6981 50.4685 70.5003 51.001C70.3025 51.5334 70.2581 52.1107 70.3722 52.6672C70.4863 53.2236 70.7543 53.7369 71.1457 54.1486C71.5371 54.5602 72.0362 54.8538 72.5862 54.9958V57.8239L67.4981 62.912C67.3558 63.0542 67.2759 63.2471 67.2758 63.4483V77.8621C67.2758 78.0633 67.3558 78.2563 67.498 78.3985C67.6403 78.5408 67.8333 78.6207 68.0345 78.6207C68.2357 78.6207 68.4286 78.5408 68.5709 78.3985C68.7132 78.2563 68.7931 78.0633 68.7931 77.8621V63.7624L73.8812 58.6743C74.0234 58.5321 74.1034 58.3392 74.1034 58.138V54.9958C74.7529 54.8281 75.3285 54.4499 75.7403 53.9204C76.1521 53.3908 76.3768 52.7398 76.3793 52.069Z" fill="url(#paint2_linear_403_24346)"/>
<g filter="url(#filter2_d_403_24346)">
<path d="M68.885 64.9349C68.885 65.2734 68.6105 65.5479 68.272 65.5479C67.9334 65.5479 67.659 65.2734 67.659 64.9349V62.4828C67.659 61.3447 67.2068 60.2532 66.4021 59.4484C65.5973 58.6437 64.5059 58.1916 63.3678 58.1916C62.2297 58.1916 61.1382 58.6437 60.3334 59.4484C59.5287 60.2532 59.0766 61.3447 59.0766 62.4828V64.9349C59.0766 65.2734 58.8021 65.5479 58.4636 65.5479C58.125 65.5479 57.8505 65.2734 57.8505 64.9349V62.4828C57.8505 61.0195 58.4318 59.6162 59.4665 58.5815C60.5012 57.5468 61.9045 56.9655 63.3678 56.9655C64.831 56.9655 66.2344 57.5468 67.269 58.5815C68.3037 59.6162 68.885 61.0195 68.885 62.4828V64.9349Z" fill="white"/>
</g>
<g filter="url(#filter3_d_403_24346)">
<path d="M70.7241 66.774H56.0115C55.5237 66.774 55.0559 66.9677 54.711 67.3126C54.3662 67.6575 54.1724 68.1253 54.1724 68.6131V77.1954C54.1724 77.6832 54.3662 78.151 54.711 78.4959C55.0559 78.8407 55.5237 79.0345 56.0115 79.0345H70.7241C71.2119 79.0345 71.6797 78.8407 72.0245 78.4959C72.3694 78.151 72.5632 77.6832 72.5632 77.1954V68.6131C72.5632 68.1253 72.3694 67.6575 72.0245 67.3126C71.6797 66.9677 71.2119 66.774 70.7241 66.774ZM63.9808 74.0439V75.9694C63.9808 76.132 63.9162 76.2879 63.8013 76.4028C63.6863 76.5178 63.5304 76.5824 63.3678 76.5824C63.2052 76.5824 63.0493 76.5178 62.9343 76.4028C62.8194 76.2879 62.7548 76.132 62.7548 75.9694V74.0439C62.1769 73.8946 61.6733 73.5398 61.3383 73.0458C61.0033 72.5519 60.86 71.9527 60.9352 71.3606C61.0104 70.7686 61.299 70.2243 61.7468 69.8297C62.1946 69.4352 62.771 69.2175 63.3678 69.2175C63.9646 69.2175 64.541 69.4352 64.9888 69.8297C65.4366 70.2243 65.7252 70.7686 65.8004 71.3606C65.8756 71.9527 65.7323 72.5519 65.3973 73.0458C65.0623 73.5398 64.5587 73.8946 63.9808 74.0439Z" fill="url(#paint3_linear_403_24346)"/>
</g>
</g>
<g filter="url(#filter4_d_403_24346)">
<path d="M63 12L29.8965 26.5455V48.3636C29.8965 68.5455 44.0207 87.4182 63 92C81.9793 87.4182 96.1034 68.5455 96.1034 48.3636V26.5455L63 12Z" fill="url(#paint4_linear_403_24346)"/>
</g>
<path opacity="0.85" d="M63 17.5172L34.0345 30.0564V48.8652C34.0345 66.2633 46.3931 82.5329 63 86.4828C79.6069 82.5329 91.9655 66.2633 91.9655 48.8652V30.0564L63 17.5172Z" fill="url(#paint5_linear_403_24346)"/>
<path opacity="0.11" fill-rule="evenodd" clip-rule="evenodd" d="M66.8288 25.3346C67.2025 25.9383 67.3992 26.6349 67.3965 27.3449C67.3934 28.1834 67.1125 28.9972 66.5978 29.6591C66.0831 30.321 65.3635 30.7937 64.5517 31.0033V64.3276C64.5517 64.5791 64.4518 64.8203 64.2739 64.9982C64.0961 65.176 63.8549 65.2759 63.6034 65.2759C63.3519 65.2759 63.1107 65.176 62.9329 64.9982C62.755 64.8203 62.6551 64.5791 62.6551 64.3276V31.0033C61.9676 30.8258 61.3438 30.4589 60.8545 29.9443C60.3653 29.4298 60.0303 28.7882 59.8876 28.0926C59.745 27.397 59.8005 26.6754 60.0477 26.0098C60.295 25.3442 60.7241 24.7614 61.2863 24.3276C61.8484 23.8939 62.521 23.6266 63.2276 23.5563C63.9341 23.4859 64.6462 23.6153 65.2829 23.9296C65.9195 24.244 66.4552 24.7308 66.8288 25.3346ZM52.2241 39.2799L58.5842 45.64C58.7621 45.8178 58.862 46.0589 58.8621 46.3104V64.3277C58.8621 64.5792 58.7622 64.8204 58.5843 64.9982C58.4065 65.176 58.1653 65.2759 57.9138 65.2759C57.6623 65.2759 57.4211 65.176 57.2432 64.9982C57.0654 64.8204 56.9655 64.5792 56.9655 64.3277V46.703L50.6054 40.3429C50.4276 40.1651 50.3276 39.924 50.3276 39.6725V35.7447C49.4337 35.5139 48.6546 34.965 48.1365 34.2009C47.6183 33.4368 47.3967 32.51 47.513 31.5941C47.6293 30.6783 48.0757 29.8363 48.7684 29.226C49.4611 28.6157 50.3526 28.279 51.2759 28.279C52.1991 28.279 53.0906 28.6157 53.7833 29.226C54.476 29.8363 54.9224 30.6783 55.0387 31.5941C55.1551 32.51 54.9334 33.4368 54.4152 34.2009C53.8971 34.965 53.118 35.5139 52.2241 35.7447V39.2799ZM52.8946 59.8641L48.431 55.4006V51.8654C49.3249 51.6346 50.104 51.0857 50.6221 50.3216C51.1403 49.5575 51.3619 48.6307 51.2456 47.7148C51.1293 46.799 50.6829 45.957 49.9902 45.3467C49.2975 44.7364 48.406 44.3997 47.4827 44.3997C46.5595 44.3997 45.668 44.7364 44.9753 45.3467C44.2826 45.957 43.8362 46.799 43.7199 47.7148C43.6035 48.6307 43.8252 49.5575 44.3434 50.3216C44.8615 51.0857 45.6406 51.6346 46.5345 51.8654V55.7932C46.5345 56.0447 46.6345 56.2858 46.8123 56.4636L51.2759 60.9271V64.3277C51.2759 64.5792 51.3758 64.8204 51.5536 64.9982C51.7314 65.176 51.9726 65.2759 52.2241 65.2759C52.4756 65.2759 52.7168 65.176 52.8947 64.9982C53.0725 64.8204 53.1724 64.5792 53.1724 64.3277V60.5345C53.1724 60.2831 53.0724 60.0419 52.8946 59.8641ZM83.5172 48.207C83.5199 47.4969 83.3232 46.8004 82.9495 46.1966C82.5759 45.5929 82.0402 45.1061 81.4036 44.7917C80.7669 44.4773 80.0548 44.348 79.3483 44.4183C78.6417 44.4887 77.9691 44.7559 77.407 45.1897C76.8448 45.6235 76.4157 46.2063 76.1685 46.8719C75.9212 47.5375 75.8657 48.2591 76.0084 48.9547C76.151 49.6503 76.486 50.2918 76.9752 50.8064C77.4645 51.321 78.0884 51.6879 78.7758 51.8654V55.4006L74.3123 59.8641C74.1345 60.0419 74.0345 60.2831 74.0345 60.5345V64.3276C74.0345 64.5791 74.1344 64.8203 74.3122 64.9982C74.49 65.176 74.7312 65.2759 74.9827 65.2759C75.2342 65.2759 75.4754 65.176 75.6533 64.9982C75.8311 64.8203 75.931 64.5791 75.931 64.3276V60.9271L80.3946 56.4636C80.5724 56.2858 80.6723 56.0446 80.6724 55.7932V51.8654C81.4843 51.6558 82.2038 51.1831 82.7185 50.5212C83.2332 49.8592 83.5141 49.0454 83.5172 48.207ZM79.7241 32.0863C79.7268 31.3762 79.5301 30.6797 79.1564 30.0759C78.7828 29.4722 78.2471 28.9854 77.6105 28.671C76.9738 28.3566 76.2617 28.2273 75.5552 28.2976C74.8486 28.368 74.176 28.6352 73.6139 29.069C73.0517 29.5028 72.6226 30.0856 72.3754 30.7512C72.1281 31.4168 72.0726 32.1384 72.2153 32.834C72.3579 33.5296 72.6929 34.1711 73.1821 34.6857C73.6714 35.2003 74.2952 35.5672 74.9827 35.7447V39.2799L68.6227 45.64C68.4448 45.8178 68.3449 46.0589 68.3448 46.3104V64.3276C68.3448 64.5791 68.4447 64.8203 68.6226 64.9982C68.8004 65.176 69.0416 65.2759 69.2931 65.2759C69.5446 65.2759 69.7858 65.176 69.9636 64.9982C70.1415 64.8203 70.2414 64.5791 70.2414 64.3276V46.703L76.6014 40.3429C76.7793 40.1651 76.8792 39.924 76.8793 39.6725V35.7447C77.6912 35.5351 78.4107 35.0624 78.9254 34.4005C79.4401 33.7386 79.721 32.9247 79.7241 32.0863Z" fill="url(#paint6_linear_403_24346)"/>
<g filter="url(#filter5_d_403_24346)">
<path d="M70.3563 48.1686C70.3563 48.5918 70.0132 48.9349 69.59 48.9349C69.1668 48.9349 68.8237 48.5918 68.8237 48.1686V45.1034C68.8237 43.6808 68.2586 42.3165 67.2527 41.3105C66.2467 40.3046 64.8824 39.7395 63.4598 39.7395C62.0371 39.7395 60.6728 40.3046 59.6668 41.3105C58.6609 42.3165 58.0958 43.6808 58.0958 45.1034V48.1686C58.0958 48.5918 57.7527 48.9349 57.3295 48.9349C56.9063 48.9349 56.5632 48.5918 56.5632 48.1686V45.1034C56.5632 43.2744 57.2898 41.5202 58.5832 40.2268C59.8765 38.9335 61.6307 38.2069 63.4598 38.2069C65.2888 38.2069 67.043 38.9335 68.3364 40.2268C69.6297 41.5202 70.3563 43.2744 70.3563 45.1034V48.1686Z" fill="white"/>
</g>
<g filter="url(#filter6_d_403_24346)">
<path d="M72.6552 50.4675H54.2644C53.6547 50.4675 53.07 50.7097 52.6388 51.1408C52.2077 51.5719 51.9655 52.1566 51.9655 52.7663V63.4943C51.9655 64.104 52.2077 64.6887 52.6388 65.1198C53.07 65.5509 53.6547 65.7931 54.2644 65.7931H72.6552C73.2649 65.7931 73.8496 65.5509 74.2807 65.1198C74.7118 64.6887 74.954 64.104 74.954 63.4943V52.7663C74.954 52.1566 74.7118 51.5719 74.2807 51.1408C73.8496 50.7097 73.2649 50.4675 72.6552 50.4675ZM64.2261 59.5548V61.9617C64.2261 62.165 64.1453 62.3599 64.0016 62.5036C63.8579 62.6473 63.663 62.728 63.4598 62.728C63.2565 62.728 63.0616 62.6473 62.9179 62.5036C62.7742 62.3599 62.6935 62.165 62.6935 61.9617V59.5548C61.9711 59.3683 61.3416 58.9248 60.9229 58.3073C60.5042 57.6899 60.3251 56.9409 60.4191 56.2008C60.5131 55.4607 60.8738 54.7803 61.4335 54.2871C61.9933 53.794 62.7137 53.5219 63.4598 53.5219C64.2058 53.5219 64.9262 53.794 65.486 54.2871C66.0458 54.7803 66.4065 55.4607 66.5005 56.2008C66.5945 56.9409 66.4153 57.6899 65.9966 58.3073C65.5779 58.9248 64.9484 59.3683 64.2261 59.5548Z" fill="url(#paint7_linear_403_24346)"/>
</g>
<defs>
<filter id="filter0_f_403_24346" x="0.517212" y="0" width="124.966" height="136" filterUnits="userSpaceOnUse" color-interpolation-filters="sRGB">
<feFlood flood-opacity="0" result="BackgroundImageFix"/>
<feBlend mode="normal" in="SourceGraphic" in2="BackgroundImageFix" result="shape"/>
<feGaussianBlur stdDeviation="18" result="effect1_foregroundBlur_403_24346"/>
</filter>
<filter id="filter1_d_403_24346" x="31.7172" y="36" width="62.5655" height="74.4" filterUnits="userSpaceOnUse" color-interpolation-filters="sRGB">
<feFlood flood-opacity="0" result="BackgroundImageFix"/>
<feColorMatrix in="SourceAlpha" type="matrix" values="0 0 0 0 0 0 0 0 0 0 0 0 0 0 0 0 0 0 127 0" result="hardAlpha"/>
<feOffset dy="5.6"/>
<feGaussianBlur stdDeviation="2.4"/>
<feComposite in2="hardAlpha" operator="out"/>
<feColorMatrix type="matrix" values="0 0 0 0 0.230417 0 0 0 0 0.390075 0 0 0 0 0.7 0 0 0 0.04 0"/>
<feBlend mode="normal" in2="BackgroundImageFix" result="effect1_dropShadow_403_24346"/>
<feBlend mode="normal" in="SourceGraphic" in2="effect1_dropShadow_403_24346" result="shape"/>
</filter>
<filter id="filter2_d_403_24346" x="51.4505" y="56.9655" width="23.8345" height="21.3824" filterUnits="userSpaceOnUse" color-interpolation-filters="sRGB">
<feFlood flood-opacity="0" result="BackgroundImageFix"/>
<feColorMatrix in="SourceAlpha" type="matrix" values="0 0 0 0 0 0 0 0 0 0 0 0 0 0 0 0 0 0 127 0" result="hardAlpha"/>
<feOffset dy="6.4"/>
<feGaussianBlur stdDeviation="3.2"/>
<feComposite in2="hardAlpha" operator="out"/>
<feColorMatrix type="matrix" values="0 0 0 0 0 0 0 0 0 0 0 0 0 0 0 0 0 0 0.09 0"/>
<feBlend mode="normal" in2="BackgroundImageFix" result="effect1_dropShadow_403_24346"/>
<feBlend mode="normal" in="SourceGraphic" in2="effect1_dropShadow_403_24346" result="shape"/>
</filter>
<filter id="filter3_d_403_24346" x="47.7724" y="66.774" width="31.1908" height="25.0605" filterUnits="userSpaceOnUse" color-interpolation-filters="sRGB">
<feFlood flood-opacity="0" result="BackgroundImageFix"/>
<feColorMatrix in="SourceAlpha" type="matrix" values="0 0 0 0 0 0 0 0 0 0 0 0 0 0 0 0 0 0 127 0" result="hardAlpha"/>
<feOffset dy="6.4"/>
<feGaussianBlur stdDeviation="3.2"/>
<feComposite in2="hardAlpha" operator="out"/>
<feColorMatrix type="matrix" values="0 0 0 0 0 0 0 0 0 0 0 0 0 0 0 0 0 0 0.09 0"/>
<feBlend mode="normal" in2="BackgroundImageFix" result="effect1_dropShadow_403_24346"/>
<feBlend mode="normal" in="SourceGraphic" in2="effect1_dropShadow_403_24346" result="shape"/>
</filter>
<filter id="filter4_d_403_24346" x="23.8965" y="12" width="78.2069" height="93" filterUnits="userSpaceOnUse" color-interpolation-filters="sRGB">
<feFlood flood-opacity="0" result="BackgroundImageFix"/>
<feColorMatrix in="SourceAlpha" type="matrix" values="0 0 0 0 0 0 0 0 0 0 0 0 0 0 0 0 0 0 127 0" result="hardAlpha"/>
<feOffset dy="7"/>
<feGaussianBlur stdDeviation="3"/>
<feComposite in2="hardAlpha" operator="out"/>
<feColorMatrix type="matrix" values="0 0 0 0 0.230417 0 0 0 0 0.390075 0 0 0 0 0.7 0 0 0 0.04 0"/>
<feBlend mode="normal" in2="BackgroundImageFix" result="effect1_dropShadow_403_24346"/>
<feBlend mode="normal" in="SourceGraphic" in2="effect1_dropShadow_403_24346" result="shape"/>
</filter>
<filter id="filter5_d_403_24346" x="48.5632" y="38.2069" width="29.7931" height="26.728" filterUnits="userSpaceOnUse" color-interpolation-filters="sRGB">
<feFlood flood-opacity="0" result="BackgroundImageFix"/>
<feColorMatrix in="SourceAlpha" type="matrix" values="0 0 0 0 0 0 0 0 0 0 0 0 0 0 0 0 0 0 127 0" result="hardAlpha"/>
<feOffset dy="8"/>
<feGaussianBlur stdDeviation="4"/>
<feComposite in2="hardAlpha" operator="out"/>
<feColorMatrix type="matrix" values="0 0 0 0 0 0 0 0 0 0 0 0 0 0 0 0 0 0 0.09 0"/>
<feBlend mode="normal" in2="BackgroundImageFix" result="effect1_dropShadow_403_24346"/>
<feBlend mode="normal" in="SourceGraphic" in2="effect1_dropShadow_403_24346" result="shape"/>
</filter>
<filter id="filter6_d_403_24346" x="43.9655" y="50.4675" width="38.9885" height="31.3257" filterUnits="userSpaceOnUse" color-interpolation-filters="sRGB">
<feFlood flood-opacity="0" result="BackgroundImageFix"/>
<feColorMatrix in="SourceAlpha" type="matrix" values="0 0 0 0 0 0 0 0 0 0 0 0 0 0 0 0 0 0 127 0" result="hardAlpha"/>
<feOffset dy="8"/>
<feGaussianBlur stdDeviation="4"/>
<feComposite in2="hardAlpha" operator="out"/>
<feColorMatrix type="matrix" values="0 0 0 0 0 0 0 0 0 0 0 0 0 0 0 0 0 0 0.09 0"/>
<feBlend mode="normal" in2="BackgroundImageFix" result="effect1_dropShadow_403_24346"/>
<feBlend mode="normal" in="SourceGraphic" in2="effect1_dropShadow_403_24346" result="shape"/>
</filter>
<linearGradient id="paint0_linear_403_24346" x1="80.2835" y1="40.7213" x2="21.0461" y2="62.5439" gradientUnits="userSpaceOnUse">
<stop stop-color="#F2F5FB"/>
<stop offset="1" stop-color="#DAE0ED"/>
</linearGradient>
<linearGradient id="paint1_linear_403_24346" x1="43.8103" y1="98.2273" x2="86.1724" y2="98.2273" gradientUnits="userSpaceOnUse">
<stop stop-color="#0D1E47"/>
<stop offset="1" stop-color="#657292"/>
</linearGradient>
<linearGradient id="paint2_linear_403_24346" x1="67.9656" y1="50.3448" x2="65.2069" y2="77.931" gradientUnits="userSpaceOnUse">
<stop stop-color="white"/>
<stop offset="1" stop-color="white" stop-opacity="0.45"/>
</linearGradient>
<linearGradient id="paint3_linear_403_24346" x1="68.2596" y1="66.8273" x2="64.0486" y2="81.3554" gradientUnits="userSpaceOnUse">
<stop stop-color="#12B0FA"/>
<stop offset="1" stop-color="#6FC7F4"/>
</linearGradient>
<linearGradient id="paint4_linear_403_24346" x1="84.6044" y1="17.9016" x2="10.5576" y2="45.1799" gradientUnits="userSpaceOnUse">
<stop stop-color="#F2F5FB"/>
<stop offset="1" stop-color="#DAE0ED"/>
</linearGradient>
<linearGradient id="paint5_linear_403_24346" x1="39.0129" y1="89.7841" x2="91.9655" y2="89.7841" gradientUnits="userSpaceOnUse">
<stop stop-color="#0D1E47"/>
<stop offset="1" stop-color="#657292"/>
</linearGradient>
<linearGradient id="paint6_linear_403_24346" x1="69.207" y1="29.931" x2="65.7586" y2="64.4138" gradientUnits="userSpaceOnUse">
<stop stop-color="white"/>
<stop offset="1" stop-color="white" stop-opacity="0.45"/>
</linearGradient>
<linearGradient id="paint7_linear_403_24346" x1="69.5745" y1="50.5342" x2="64.3108" y2="68.6942" gradientUnits="userSpaceOnUse">
<stop stop-color="#12B0FA"/>
<stop offset="1" stop-color="#6FC7F4"/>
</linearGradient>
</defs>
</svg>
